<svg width="219" height="128" viewBox="0 0 219 128" fill="none" xmlns="http://www.w3.org/2000/svg">
<path d="M165.705 50.7407C165.705 82.2513 140.161 107.796 108.651 107.796C77.141 107.796 51.5969 82.2513 51.5969 50.7407C51.5969 19.2301 74.9639 0.191803 106.474 0.191803C137.984 0.191803 165.705 19.2301 165.705 50.7407Z" fill="url(#paint0_radial_402_2)"/>
<ellipse cx="108.403" cy="50.4927" rx="40.9302" ry="40.9308" fill="url(#paint1_radial_402_2)"/>
<path d="M106.605 18.6082C99.73 19.4791 93.309 22.5085 88.2655 27.2605C83.2219 32.0125 79.816 38.2421 78.5377 45.0527" stroke="white" stroke-opacity="0.4" stroke-width="10" stroke-linecap="round" stroke-linejoin="round"/>
<path d="M114.432 80.6099C119.774 80.3646 124.899 78.3975 129.07 74.9914C133.241 71.5854 136.242 66.9162 137.642 61.6556" stroke="white" stroke-opacity="0.1" stroke-width="10" stroke-linecap="round" stroke-linejoin="round"/>
<circle cx="98.2907" cy="27.4807" r="7.5" fill="white"/>
<mask id="path-6-inside-1_402_2" fill="white">
<path fill-rule="evenodd" clip-rule="evenodd" d="M0 65.983C21.8073 29.2183 62.5667 4.48303 109.25 4.48303C155.933 4.48303 196.693 29.2183 218.5 65.983C196.693 102.748 155.933 127.483 109.25 127.483C62.5667 127.483 21.8073 102.748 0 65.983Z"/>
</mask>
<path d="M0 65.983L-4.30039 63.4322L-5.81342 65.983L-4.30039 68.5338L0 65.983ZM218.5 65.983L222.8 68.5338L224.313 65.983L222.8 63.4322L218.5 65.983ZM4.30039 68.5338C25.2229 33.2607 64.3627 9.48303 109.25 9.48303V-0.516968C60.7706 -0.516968 18.3917 25.1758 -4.30039 63.4322L4.30039 68.5338ZM109.25 9.48303C154.137 9.48303 193.277 33.2607 214.2 68.5338L222.8 63.4322C200.108 25.1758 157.729 -0.516968 109.25 -0.516968V9.48303ZM214.2 63.4322C193.277 98.7053 154.137 122.483 109.25 122.483V132.483C157.729 132.483 200.108 106.79 222.8 68.5338L214.2 63.4322ZM109.25 122.483C64.3627 122.483 25.2229 98.7053 4.30039 63.4322L-4.30039 68.5338C18.3917 106.79 60.7706 132.483 109.25 132.483V122.483Z" fill="black" mask="url(#path-6-inside-1_402_2)"/>
<mask id="path-8-inside-2_402_2" fill="white">
<path fill-rule="evenodd" clip-rule="evenodd" d="M0 61.5C21.8073 24.7352 62.5667 0 109.25 0C155.933 0 196.693 24.7352 218.5 61.5C196.693 98.2648 155.933 123 109.25 123C62.5667 123 21.8073 98.2648 0 61.5Z"/>
</mask>
<path d="M0 61.5L-4.30039 58.9492L-5.81342 61.5L-4.30039 64.0508L0 61.5ZM218.5 61.5L222.8 64.0508L224.313 61.5L222.8 58.9492L218.5 61.5ZM4.30039 64.0508C25.2229 28.7777 64.3627 5 109.25 5V-5C60.7706 -5 18.3917 20.6927 -4.30039 58.9492L4.30039 64.0508ZM109.25 5C154.137 5 193.277 28.7777 214.2 64.0508L222.8 58.9492C200.108 20.6927 157.729 -5 109.25 -5V5ZM214.2 58.9492C193.277 94.2223 154.137 118 109.25 118V128C157.729 128 200.108 102.307 222.8 64.0508L214.2 58.9492ZM109.25 118C64.3627 118 25.2229 94.2223 4.30039 58.9492L-4.30039 64.0508C18.3917 102.307 60.7706 128 109.25 128V118Z" fill="white" mask="url(#path-8-inside-2_402_2)"/>
<defs>
<radialGradient id="paint0_radial_402_2" cx="0" cy="0" r="1" gradientUnits="userSpaceOnUse" gradientTransform="translate(108.651 50.7407) rotate(90) scale(57.055 57.0543)">
<stop offset="0.494792" stop-color="#004BA0" stop-opacity="0.86"/>
<stop offset="0.852083" stop-color="#1976D2" stop-opacity="0.9"/>
<stop offset="1" stop-color="#63A4FF" stop-opacity="0.96"/>
</radialGradient>
<radialGradient id="paint1_radial_402_2" cx="0" cy="0" r="1" gradientUnits="userSpaceOnUse" gradientTransform="translate(137.206 60.498) rotate(-147.747) scale(134.08 134.081)">
<stop offset="0.140625"/>
<stop offset="1" stop-opacity="0"/>
</radialGradient>
</defs>
</svg>
