<svg xmlns="http://www.w3.org/2000/svg" version="1.1" xmlns:xlink="http://www.w3.org/1999/xlink" xmlns:svgjs="http://svgjs.com/svgjs" width="1920" height="1080" preserveAspectRatio="none" viewBox="0 0 1920 1080"><g mask="url(&quot;#SvgjsMask1304&quot;)" fill="none"><rect width="1920" height="1080" x="0" y="0" fill="url(#SvgjsLinearGradient1305)"></rect><path d="M260.551,1038.884C305.379,1039.014,344.701,1009.197,364.876,969.166C383.237,932.735,372.917,891.163,352.923,855.602C332.418,819.132,302.367,782.236,260.551,783.617C220.103,784.953,197.907,826.039,178.175,861.373C159.151,895.438,140.843,933.172,157.267,968.564C176.058,1009.056,215.911,1038.755,260.551,1038.884" fill="rgba(25, 118, 210, 0.6)" class="triangle-float1"></path><path d="M473.315,1152.614C564.89,1151.98,658.792,1125.551,707.256,1047.849C758.31,965.994,758.141,859.669,707.078,777.819C658.621,700.147,564.801,669.495,473.315,672.86C388.07,675.996,313.201,721.925,267.553,793.986C217.967,872.263,187.582,970.755,233.695,1051.127C279.962,1131.767,380.347,1153.258,473.315,1152.614" fill="rgba(25, 118, 210, 0.6)" class="triangle-float3"></path><path d="M1660.084,827.114C1761.945,829.564,1846.771,757.039,1897.047,668.417C1946.586,581.094,1965.15,471.156,1909.378,387.677C1857.77,310.431,1752.936,310.79,1660.084,313.734C1574.243,316.455,1482.742,330.134,1436.744,402.661C1387.975,479.556,1399.676,576.892,1442.077,657.473C1488.032,744.809,1561.424,824.741,1660.084,827.114" fill="rgba(25, 118, 210, 0.6)" class="triangle-float2"></path><path d="M41.151,381.962C96.604,383.044,154.147,369.413,184.856,323.226C218.781,272.203,223.839,205.524,194.069,151.97C163.507,96.991,103.983,61.748,41.151,64.709C-17.463,67.471,-61.184,113.461,-88.69,165.294C-114.242,213.443,-121.179,271.046,-93.16,317.802C-65.825,363.417,-12.017,380.925,41.151,381.962" fill="rgba(25, 118, 210, 0.6)" class="triangle-float1"></path><path d="M1335.694,202.33C1387.429,202.774,1434.315,174.115,1461.047,129.819C1488.757,83.904,1494.403,27.667,1469.888,-20.031C1443.126,-72.101,1394.225,-115.378,1335.694,-114.08C1278.771,-112.818,1237.024,-65.158,1211.428,-14.299C1188.618,31.025,1188.764,83.687,1214.011,127.7C1239.387,171.936,1284.698,201.893,1335.694,202.33" fill="rgba(25, 118, 210, 0.6)" class="triangle-float2"></path><path d="M1545.721,962.569C1617.943,961.8,1696.287,946.12,1731.619,883.126C1766.432,821.056,1737.403,747.29,1700.643,686.353C1665.431,627.981,1613.812,578.24,1545.721,574.962C1472.087,571.417,1401.357,607.363,1362.61,670.078C1321.806,736.123,1311.646,821.355,1352.841,887.157C1392.102,949.87,1471.736,963.356,1545.721,962.569" fill="rgba(25, 118, 210, 0.6)" class="triangle-float2"></path><path d="M488.601,844.614C536.901,843.598,568.034,799.521,592.17,757.671C616.28,715.867,640.771,665.721,615.478,624.623C590.82,584.558,535.583,586.949,488.601,589.383C447.192,591.528,405.084,601.834,382.617,636.685C358.299,674.408,356.814,722.208,377.196,762.195C399.679,806.304,439.103,845.656,488.601,844.614" fill="rgba(25, 118, 210, 0.6)" class="triangle-float3"></path><path d="M828.676,880.427C868.353,879.41,893.206,840.695,909.988,804.727C923.917,774.873,921.364,742.21,906.996,712.564C890.033,677.564,867.5,639.284,828.676,636.95C787.155,634.454,751.23,665.091,732.149,702.052C714.562,736.118,721.564,775.371,739.81,809.089C759.186,844.895,787.976,881.47,828.676,880.427" fill="rgba(25, 118, 210, 0.6)" class="triangle-float1"></path></g><defs><mask id="SvgjsMask1304"><rect width="1920" height="1080" fill="#ffffff"></rect></mask><linearGradient x1="10.94%" y1="-19.44%" x2="89.06%" y2="119.44%" gradientUnits="userSpaceOnUse" id="SvgjsLinearGradient1305"><stop stop-color="rgba(255, 217, 90, 1)" offset="0"></stop><stop stop-color="rgba(193, 121, 0, 1)" offset="1"></stop></linearGradient><style>
            @keyframes float1 {
                0%{transform: translate(0, 0)}
                50%{transform: translate(-35px, 0)}
                100%{transform: translate(0, 0)}
            }

            .triangle-float1 {
                animation: float1 9s infinite;
            }

            @keyframes float2 {
                0%{transform: translate(0, 0)}
                50%{transform: translate(-20px, -20px)}
                100%{transform: translate(0, 0)}
            }

            .triangle-float2 {
                animation: float2 6s infinite;
            }

            @keyframes float3 {
                0%{transform: translate(0, 0)}
                50%{transform: translate(0, -35px)}
                100%{transform: translate(0, 0)}
            }

            .triangle-float3 {
                animation: float3 10s infinite;
            }
        </style></defs></svg>