<svg xmlns="http://www.w3.org/2000/svg" version="1.1" xmlns:xlink="http://www.w3.org/1999/xlink" xmlns:svgjs="http://svgjs.com/svgjs" width="560" height="780" preserveAspectRatio="none" viewBox="0 0 560 780"><g mask="url(&quot;#SvgjsMask1001&quot;)" fill="none"><rect width="560" height="780" x="0" y="0" fill="rgba(25, 118, 210, 1)"></rect><path d="M0,243.639C61.249,252.165,125.638,309.84,178.525,277.791C231.008,245.987,208.079,162.297,229.271,104.705C248.294,53.009,304.328,11.895,296.427,-42.62C288.526,-97.135,230.874,-127.659,190.209,-164.817C154.143,-197.773,119.989,-235.387,72.576,-247.17C26.035,-258.736,-19.31,-231.711,-67.177,-228.782C-133.223,-224.741,-218.062,-276.505,-261.651,-226.722C-305.145,-177.048,-237.242,-100.183,-237.586,-34.16C-237.864,19.128,-280.243,69.741,-263.46,120.318C-246.327,171.948,-198.475,209.11,-149.207,232.171C-103.095,253.755,-50.428,236.62,0,243.639" fill="#145ea8"></path><path d="M560 1002.2C617.503 1003.803 675.058 1065.2069999999999 725.386 1037.346 774.832 1009.973 757.281 932.219 779.937 880.442 802.08 829.835 853.673 792.507 856.653 737.348 859.828 678.564 832.447 621.6990000000001 796.429 575.133 759.158 526.946 711.37 476.654 650.706 471.084 590.966 465.599 544.54 518.875 491.629 547.149 450.305 569.231 409.628 588.376 374.08299999999997 618.902 333.08299999999997 654.112 282.97 685.931 269.182 738.187 254.998 791.943 277.362 847.957 300.28 898.61 323.259 949.399 348.65700000000004 1007.634 400.43600000000004 1028.286 451.53 1048.665 505.013 1000.667 560 1002.2" fill="#338ee7"></path></g><defs><mask id="SvgjsMask1001"><rect width="560" height="780" fill="#ffffff"></rect></mask></defs></svg>