<svg width="219" height="141" viewBox="0 0 219 141" fill="none" xmlns="http://www.w3.org/2000/svg">
<path d="M165.705 64.055C165.705 95.5656 140.161 121.11 108.651 121.11C77.141 121.11 51.5969 95.5656 51.5969 64.055C51.5969 32.5444 74.9639 13.5061 106.474 13.5061C137.984 13.5061 165.705 32.5444 165.705 64.055Z" fill="url(#paint0_radial_112_2)"/>
<ellipse cx="108.403" cy="63.807" rx="40.9302" ry="40.9308" fill="url(#paint1_radial_112_2)"/>
<path d="M106.605 31.9225C99.73 32.7934 93.309 35.8228 88.2655 40.5748C83.2219 45.3268 79.816 51.5564 78.5377 58.367" stroke="white" stroke-opacity="0.4" stroke-width="10" stroke-linecap="round" stroke-linejoin="round"/>
<path d="M114.432 93.9242C119.774 93.679 124.899 91.7118 129.07 88.3058C133.241 84.8998 136.242 80.2305 137.642 74.9699" stroke="white" stroke-opacity="0.1" stroke-width="10" stroke-linecap="round" stroke-linejoin="round"/>
<circle cx="98.2907" cy="40.7949" r="7.5" fill="white"/>
<mask id="path-6-inside-1_112_2" fill="white">
<path fill-rule="evenodd" clip-rule="evenodd" d="M-5.03416e-06 79.2973C21.8073 42.5325 62.5667 17.7973 109.25 17.7973C155.933 17.7973 196.693 42.5325 218.5 79.2973C196.693 116.062 155.933 140.797 109.25 140.797C62.5667 140.797 21.8073 116.062 -5.03416e-06 79.2973Z"/>
</mask>
<path d="M-5.03416e-06 79.2973L-4.3004 76.7465L-5.81343 79.2973L-4.3004 81.8481L-5.03416e-06 79.2973ZM218.5 79.2973L222.8 81.8481L224.313 79.2973L222.8 76.7465L218.5 79.2973ZM4.30039 81.8481C25.2229 46.575 64.3627 22.7973 109.25 22.7973V12.7973C60.7706 12.7973 18.3917 38.49 -4.3004 76.7465L4.30039 81.8481ZM109.25 22.7973C154.137 22.7973 193.277 46.575 214.2 81.8481L222.8 76.7465C200.108 38.49 157.729 12.7973 109.25 12.7973V22.7973ZM214.2 76.7465C193.277 112.02 154.137 135.797 109.25 135.797V145.797C157.729 145.797 200.108 120.105 222.8 81.8481L214.2 76.7465ZM109.25 135.797C64.3627 135.797 25.2229 112.02 4.30039 76.7465L-4.3004 81.8481C18.3917 120.105 60.7706 145.797 109.25 145.797V135.797Z" fill="black" mask="url(#path-6-inside-1_112_2)"/>
<mask id="path-8-inside-2_112_2" fill="white">
<path fill-rule="evenodd" clip-rule="evenodd" d="M-5.03416e-06 74.8143C21.8073 38.0495 62.5667 13.3143 109.25 13.3143C155.933 13.3143 196.693 38.0495 218.5 74.8143C196.693 111.579 155.933 136.314 109.25 136.314C62.5667 136.314 21.8073 111.579 -5.03416e-06 74.8143Z"/>
</mask>
<path d="M-5.03416e-06 74.8143L-4.3004 72.2635L-5.81343 74.8143L-4.3004 77.3651L-5.03416e-06 74.8143ZM218.5 74.8143L222.8 77.3651L224.313 74.8143L222.8 72.2635L218.5 74.8143ZM4.30039 77.3651C25.2229 42.092 64.3627 18.3143 109.25 18.3143V8.31427C60.7706 8.31427 18.3917 34.007 -4.3004 72.2635L4.30039 77.3651ZM109.25 18.3143C154.137 18.3143 193.277 42.092 214.2 77.3651L222.8 72.2635C200.108 34.007 157.729 8.31427 109.25 8.31427V18.3143ZM214.2 72.2635C193.277 107.537 154.137 131.314 109.25 131.314V141.314C157.729 141.314 200.108 115.622 222.8 77.3651L214.2 72.2635ZM109.25 131.314C64.3627 131.314 25.2229 107.537 4.30039 72.2635L-4.3004 77.3651C18.3917 115.622 60.7706 141.314 109.25 141.314V131.314Z" fill="white" mask="url(#path-8-inside-2_112_2)"/>
<path d="M12.1 96H9.77498C9.22498 96 9.04998 95.7 9.24998 95.1L24.175 48.675C24.325 48.075 24.675 47.775 25.225 47.775H28.75C29.25 47.775 29.6 48.075 29.8 48.675L44.725 95.1C44.875 95.7 44.7 96 44.2 96H41.8C41.3 96 40.975 95.7 40.825 95.1L36.775 83.1H17.125L13.075 95.1C12.875 95.7 12.55 96 12.1 96ZM26.8 51.9L17.125 83.1H36.775L27.1 51.9H26.8Z" fill="#F9A825"/>
<path d="M56.2902 96H54.1152C53.6152 96 53.3652 95.7 53.3652 95.1V48.675C53.3652 48.075 53.6152 47.775 54.1152 47.775H71.2152C74.4652 47.775 77.0402 48.725 78.9402 50.625C80.8402 52.525 81.7902 55.125 81.7902 58.425V65.55C81.7902 68.35 81.0652 70.65 79.6152 72.45C78.2152 74.25 76.2902 75.4 73.8402 75.9V76.2L82.7652 95.1C83.0652 95.7 82.8902 96 82.2402 96H79.9152C79.2652 96 78.8152 95.7 78.5652 95.1L69.7152 76.2H57.8652C57.3652 76.2 57.1152 76.425 57.1152 76.875V95.1C57.1152 95.7 56.8402 96 56.2902 96ZM57.8652 72.975H70.8402C73.1402 72.975 74.9152 72.35 76.1652 71.1C77.4152 69.8 78.0402 67.975 78.0402 65.625V58.575C78.0402 56.225 77.4152 54.4 76.1652 53.1C74.9152 51.8 73.1402 51.15 70.8402 51.15H57.8652C57.3652 51.15 57.1152 51.375 57.1152 51.825V72.3C57.1152 72.75 57.3652 72.975 57.8652 72.975Z" fill="#F9A825"/>
<path d="M96.3537 96H94.1787C93.6787 96 93.4287 95.7 93.4287 95.1V48.675C93.4287 48.075 93.6787 47.775 94.1787 47.775H96.3537C96.9037 47.775 97.1787 48.075 97.1787 48.675V76.35H97.4787C97.7787 75.55 98.2287 74.725 98.8287 73.875L117.879 48.675C118.329 48.075 118.854 47.775 119.454 47.775H122.079C122.729 47.775 122.829 48.075 122.379 48.675L107.304 68.85L124.704 95.1C125.104 95.7 124.954 96 124.254 96H122.154C121.404 96 120.854 95.7 120.504 95.1L104.904 71.7L97.1787 81V95.1C97.1787 95.7 96.9037 96 96.3537 96Z" fill="#F9A825"/>
<path d="M131.924 96H129.599C129.049 96 128.874 95.7 129.074 95.1L143.999 48.675C144.149 48.075 144.499 47.775 145.049 47.775H148.574C149.074 47.775 149.424 48.075 149.624 48.675L164.549 95.1C164.699 95.7 164.524 96 164.024 96H161.624C161.124 96 160.799 95.7 160.649 95.1L156.599 83.1H136.949L132.899 95.1C132.699 95.7 132.374 96 131.924 96ZM146.624 51.9L137.999 79.725H155.624L146.924 51.9H146.624Z" fill="#F9A825"/>
<path d="M176.114 96H173.939C173.439 96 173.189 95.7 173.189 95.1V48.675C173.189 48.075 173.439 47.775 173.939 47.775H175.964C176.414 47.775 176.714 47.925 176.864 48.225L199.889 87.825H200.189V48.675C200.189 48.075 200.464 47.775 201.014 47.775H203.114C203.664 47.775 203.939 48.075 203.939 48.675V95.1C203.939 95.7 203.664 96 203.114 96H201.389C200.939 96 200.539 95.725 200.189 95.175L177.239 55.875H176.939V95.1C176.939 95.7 176.664 96 176.114 96Z" fill="#F9A825"/>
<path d="M11 92.5H43.248V96H11V92.5Z" fill="#F9A825"/>
<mask id="mask0_112_2" style="mask-type:alpha" maskUnits="userSpaceOnUse" x="8" y="47" width="38" height="50">
<path d="M24.2695 48.3555L13.4659 81.9397L8.97034 95.956H44.97L44.3728 93.9444L40.9154 83.3836L38.7467 76.5317L36.5151 69.7111L34.5015 63.2384L33.1884 59.1789L32.2695 56.3438L31.7617 54.7578L31.4101 53.6797L30.9531 52.2539L30.5273 50.9219L29.9179 49.0234L29.7695 48.5781L29.6133 48.2656L29.4492 48.0547L29.25 47.8945L29.0937 47.8281L28.9492 47.7891H28.8711H24.9922L24.7734 47.8594L24.4922 48.0273L24.2695 48.3555Z" stroke="black"/>
</mask>
<g mask="url(#mask0_112_2)">
</g>
<path d="M200.19 92.6925H203.94V95.2625C203.94 95.6712 203.609 96.0025 203.2 96.0025H200.93C200.521 96.0025 200.19 95.6712 200.19 95.2625V92.6925Z" fill="#F9A825"/>
<defs>
<radialGradient id="paint0_radial_112_2" cx="0" cy="0" r="1" gradientUnits="userSpaceOnUse" gradientTransform="translate(108.651 64.0549) rotate(90) scale(57.055 57.0543)">
<stop offset="0.494792" stop-color="#004BA0" stop-opacity="0.86"/>
<stop offset="0.852083" stop-color="#1976D2" stop-opacity="0.9"/>
<stop offset="1" stop-color="#63A4FF" stop-opacity="0.96"/>
</radialGradient>
<radialGradient id="paint1_radial_112_2" cx="0" cy="0" r="1" gradientUnits="userSpaceOnUse" gradientTransform="translate(137.206 73.8122) rotate(-147.747) scale(134.08 134.081)">
<stop offset="0.140625"/>
<stop offset="1" stop-opacity="0"/>
</radialGradient>
</defs>
</svg>
